Release Info:

General

Format                                   : Matroska
Format version                           : Version 2
File size                                : 494 MiB
Duration                                 : 1h 27mn
Overall bit rate                         : 787 Kbps
Movie name                               : 247 Degrees Fahrenheit 

Video
ID                                       : 1
Format                                   : MPEG-4 Visual
Format profile                           : Simple@L3
Format settings, BVOP                    : Yes
Format settings, QPel                    : No
Format settings, GMC                     : No warppoints
Format settings, Matrix                  : Default (H.263)
Codec ID                                 : V_MS/VFW/FOURCC / XVID
Codec ID/Hint                            : XviD
Duration                                 : 1h 27mn
Bit rate                                 : 643 Kbps
Width                                    : 720 pixels
Height                                   : 304 pixels
Display aspect ratio                     : 2.35:1
Frame rate mode                          : Constant
Frame rate                               : 23.976 fps
Color space                              : YUV
Chroma subsampling                       : 4:2:0
Bit depth                                : 8 bits
Scan type                                : Progressive
Compression mode                         : Lossy
Bits/(Pixel*Frame)                       : 0.123
Stream size                              : 403 MiB (82%)
Language                                 : English
Default                                  : Yes
Forced                                   : No

Audio
ID                                       : 2
Format                                   : MPEG Audio
Format version                           : Version 1
Format profile                           : Layer 3
Mode                                     : Joint stereo
Muxing mode                              : Header stripping
Codec ID                                 : A_MPEG/L3
Codec ID/Hint                            : MP3
Duration                                 : 1h 27mn
Bit rate mode                            : Constant
Bit rate                                 : 128 Kbps
Channel(s)                               : 2 channels
Sampling rate                            : 44.1 KHz
Compression mode                         : Lossy
Stream size                              : 80.3 MiB (16%)
Language                                 : English
Default                                  : Yes
Forced                                   : No


Imdb info:

Four friends travel to a lakeside cabin for a carefree weekend, the fun turns into a nightmare when 3 of them end up locked in a hot sauna. Every minute counts and every degree matters as they fight for their lives in the heat up to 247┬░F.

Directors: Levan Bakhia, Beqa Jguburia
Writers: Lloyd S. Wagner, Levan Bakhia (story),
Stars: Scout Taylor-Compton, Travis Van Winkle and Michael Copon 
 
http://www.imdb.com/title/tt1877543/

Genres: Horror | Thriller

Screen Shot:
 
http://www.shotpix.com/images/64116170346399735880.png 
http://www.shotpix.com/images/96349116002852562991.png 
http://www.shotpix.com/images/02700738101886182875.png 
http://www.shotpix.com/images/84824894250646520007.png 
http://www.shotpix.com/images/37756015318170713584.png